#!OML:ASF F:\VICON\USERDATA\INSTALL\rory3\rory3.ASF
:FULLY-SPECIFIED
:DEGREES
4326
root -2.32901 16.4272 -4.48304 -1.25315 -59.8185 10.2527
lowerback 15.8549 0.355508 1.1492
upperback 2.79037 0.802086 3.99844
thorax -5.95874 0.350404 3.4402
lowerneck -25.8669 6.51775 -4.79273
upperneck 17.8629 11.9852 -5.32485
head 10.0138 4.47503 0.758215
rclavicle -1.03368e-014 -5.725e-014
rhumerus -30.2482 10.8443 -81.0974
rradius 110.374
rwrist -3.93225
rhand -15.3671 29.0648
rfingers 7.12502
rthumb 10.8107 -0.637008
lclavicle -1.03368e-014 -5.725e-014
lhumerus -18.6855 2.75345 74.9631
lradius 115.517
lwrist 2.24769
lhand -16.9765 7.15216
lfingers 7.12502
lthumb 9.25805 36.9289
rfemur -25.7194 1.23894 -6.67556
rtibia 49.5353
rfoot -17.4791 5.95839
rtoes -13.3322
lfemur -31.4807 11.4396 -8.80509
ltibia 73.5557
lfoot -6.32396 -10.7118
ltoes -20.7995
4327
root -2.34278 16.3496 -4.4235 -0.0708095 -59.451 8.96883
lowerback 16.4885 0.223443 1.80868
upperback 2.79704 0.762964 4.07321
thorax -6.28739 0.316059 3.15893
lowerneck -26.0328 6.4334 -4.93805
upperneck 17.5519 11.8932 -5.29231
head 9.91909 4.44165 0.774515
rclavicle -3.97569e-015 -5.725e-014
rhumerus -30.5791 9.87099 -81.0916
rradius 109.313
rwrist -4.25697
rhand -15.3498 28.7664
rfingers 7.12502
rthumb 10.8273 -0.934476
lclavicle -3.97569e-015 -5.725e-014
lhumerus -16.3875 3.21218 73.5324
lradius 115.001
lwrist 0.765965
lhand -17.0749 7.08322
lfingers 7.12502
lthumb 9.1631 36.8641
rfemur -25.8411 1.11554 -6.12759
rtibia 50.4032
rfoot -18.2751 5.83405
rtoes -14.1771
lfemur -33.2407 11.3212 -7.89928
ltibia 74.1004
lfoot -7.09254 -10.1433
ltoes -19.0451
4328
root -2.35357 16.2769 -4.36392 1.10646 -58.924 7.67697
lowerback 17.1608 0.0853944 2.37864
upperback 2.80653 0.718578 4.26691
thorax -6.63709 0.279721 3.06046
lowerneck -26.1438 6.37121 -5.13507
upperneck 17.1249 11.89 -5.4981
head 9.79084 4.42241 0.726491
rclavicle -2.3059e-014 3.49861e-014
rhumerus -30.936 9.12692 -80.7356
rradius 107.916
rwrist -4.89133
rhand -15.2504 28.6346
rfingers 7.12502
rthumb 10.9232 -1.06125
lclavicle -2.3059e-014 3.49861e-014
lhumerus -14.067 3.52712 72.259
lradius 114.539
lwrist -0.391438
lhand -17.6444 7.41297
lfingers 7.12502
lthumb 8.61353 37.2173
rfemur -25.9531 0.946316 -5.58885
rtibia 51.3159
rfoot -19.0753 4.98971
rtoes -19.6348
lfemur -35.0513 11.0789 -7.02938
ltibia 74.4115
lfoot -7.94934 -9.59167
ltoes -19.0566
4329
root -2.36781 16.2158 -4.30059 1.77562 -58.4192 6.97054
lowerback 17.761 -0.00187101 2.62925
upperback 2.86626 0.677064 4.332
thorax -6.89548 0.251019 3.00464
lowerneck -26.3194 6.34949 -5.14711
upperneck 16.7064 11.8936 -5.76097
head 9.69173 4.40973 0.63525
rclavicle 2.14687e-014 -4.77083e-015
rhumerus -31.7701 9.50594 -79.9572
rradius 106.38
rwrist -6.32812
rhand -15.421 28.7406
rfingers 7.12502
rthumb 10.7587 -0.963884
lclavicle 2.14687e-014 -4.77083e-015
lhumerus -11.4547 3.76532 70.7668
lradius 113.869
lwrist -1.24585
lhand -18.2999 7.60284
lfingers 7.12502
lthumb 7.98089 37.4322
rfemur -26.0262 0.864401 -5.44692
rtibia 52.2103
rfoot -19.5843 4.20329
rtoes -23.5179
lfemur -36.7686 10.7955 -6.54343
ltibia 74.4366
lfoot -8.86554 -8.70386
ltoes -19.6238
4330
root -2.38864 16.1581 -4.23225 1.97805 -58.0332 6.88562
lowerback 18.1856 -0.0147281 2.43838
upperback 2.94958 0.635837 4.27943
thorax -7.03612 0.233739 3.07082
lowerneck -26.5383 6.32921 -5.01859
upperneck 16.3804 11.8489 -5.97296
head 9.63628 4.38397 0.536657
rclavicle 3.18055e-014 1.59028e-015
rhumerus -32.0106 8.84666 -79.7307
rradius 104.359
rwrist -7.64945
rhand -14.8501 28.7965
rfingers 7.12502
rthumb 11.3094 -0.878571
lclavicle 3.18055e-014 1.59028e-015
lhumerus -8.5626 4.08941 68.9324
lradius 112.848
lwrist -1.82507
lhand -18.9736 7.14949
lfingers 7.12502
lthumb 7.33064 37.0025
rfemur -26.1488 1.00315 -5.77794
rtibia 53.0473
rfoot -19.6643 4.495
rtoes -22.5721
lfemur -38.4532 10.73 -6.48156
ltibia 74.1851
lfoot -9.66125 -7.67983
ltoes -19.856
4331
root -2.4134 16.1001 -4.16259 1.91178 -57.5129 7.3107
lowerback 18.3914 -0.0331882 1.76552
upperback 2.99159 0.489941 4.26248
thorax -7.10296 0.180269 3.47437
lowerneck -26.6489 6.33464 -5.01458
upperneck 15.9811 11.8613 -6.16218
head 9.52794 4.38724 0.468329
rclavicle 1.66979e-014 -3.02153e-014
rhumerus -31.6775 7.20649 -79.8495
rradius 102.23
rwrist -8.62393
rhand -14.0874 28.3416
rfingers 7.12502
rthumb 12.0448 -1.29174
lclavicle 1.66979e-014 -3.02153e-014
lhumerus -5.53889 4.42729 67.0349
lradius 111.557
lwrist -2.01695
lhand -19.8846 7.20337
lfingers 7.12502
lthumb 6.45124 37.0851
rfemur -26.2996 1.03779 -6.47985
rtibia 53.78
rfoot -19.824 4.94672
rtoes -23.5939
lfemur -40.3522 10.7093 -6.82021
ltibia 73.6739
lfoot -10.2811 -7.09198
ltoes -19.6854
4332
root -2.44099 16.0442 -4.08957 1.63931 -56.9065 7.96846
lowerback 18.4863 -0.0615316 0.92133
upperback 3.08463 0.285819 4.20575
thorax -7.04782 0.101608 3.9456
lowerneck -26.7439 6.3945 -5.02188
upperneck 15.5668 11.9381 -6.3073
head 9.40792 4.4274 0.425961
rclavicle -6.36111e-014 -1.11319e-014
rhumerus -32.0757 7.78445 -79.2496
rradius 100.926
rwrist -10.2842
rhand -14.9213 27.5351
rfingers 7.12502
rthumb 11.2407 -2.14375
lclavicle -6.36111e-014 -1.11319e-014
lhumerus -2.22548 4.68602 64.9394
lradius 109.842
lwrist -1.39779
lhand -20.368 7.66094
lfingers 7.12502
lthumb 5.98458 37.5564
rfemur -26.2839 1.12668 -7.36239
rtibia 54.3682
rfoot -20.1379 5.06284
rtoes -26.2616
lfemur -42.1979 10.6416 -7.35868
ltibia 72.9246
lfoot -10.9065 -6.7232
ltoes -18.8556
4333
root -2.46886 15.9881 -4.01282 1.37636 -56.3275 8.57158
lowerback 18.487 -0.0776132 0.169183
upperback 3.25187 0.100581 4.03812
thorax -6.8565 0.0250052 4.23607
lowerneck -26.8345 6.47057 -4.91849
upperneck 15.1759 11.9767 -6.35248
head 9.29308 4.46914 0.395572
rclavicle -6.83819e-014 9.54166e-015
rhumerus -32.0974 7.37195 -79.1742
rradius 99.2048
rwrist -10.8929
rhand -14.7163 27.4491
rfingers 7.12502
rthumb 11.4384 -2.21888
lclavicle -6.83819e-014 9.54166e-015
lhumerus 1.50939 4.94834 62.529
lradius 107.447
lwrist 0.106245
lhand -20.667 7.60689
lfingers 7.12502
lthumb 5.6959 37.5103
rfemur -26.0932 1.40549 -8.25259
rtibia 54.7574
rfoot -20.4543 5.15708
rtoes -27.711
lfemur -43.9159 10.6776 -7.89514
ltibia 71.9718
lfoot -11.6036 -6.02587
ltoes -17.4625
4334
root -2.49737 15.9293 -3.93249 1.81762 -55.7934 8.46845
lowerback 18.493 0.00811658 -0.645713
upperback 3.29592 0.0728433 4.30611
thorax -6.81131 0.0307432 5.00427
lowerneck -26.9224 6.45361 -5.26403
upperneck 14.9835 12.072 -6.39588
head 9.22497 4.49601 0.444481
rclavicle -1.03368e-014 -1.43125e-014
rhumerus -32.2368 6.82622 -78.8058
rradius 97.2445
rwrist -10.331
rhand -14.715 27.9855
rfingers 7.12502
rthumb 11.4396 -1.68244
lclavicle -1.03368e-014 -1.43125e-014
lhumerus 5.25454 5.32867 60.5273
lradius 104.316
lwrist 1.5962
lhand -21.4344 7.76257
lfingers 7.12502
lthumb 4.95491 37.6846
rfemur -25.885 1.89347 -8.72987
rtibia 54.9109
rfoot -20.8309 5.38885
rtoes -29.1932
lfemur -45.7794 11.0707 -8.11539
ltibia 70.8955
lfoot -12.2826 -5.18652
ltoes -17.5912
4335
root -2.52852 15.8757 -3.83893 2.79179 -55.4089 7.78794
lowerback 18.3734 0.0835263 -1.09184
upperback 3.30601 0.103776 4.59045
thorax -6.73982 0.0564003 5.5637
lowerneck -26.9614 6.47921 -5.54613
upperneck 14.849 12.1998 -6.41399
head 9.17045 4.54352 0.49711
rclavicle -7.23576e-014 2.8625e-014
rhumerus -32.8535 6.69306 -78.4682
rradius 96.0827
rwrist -8.74588
rhand -15.2453 28.4158
rfingers 7.12502
rthumb 10.9281 -1.27977
lclavicle -7.23576e-014 2.8625e-014
lhumerus 9.14857 5.69976 58.3722
lradius 100.43
lwrist 2.23592
lhand -22.3655 8.6407
lfingers 7.12502
lthumb 4.05584 38.5818
rfemur -25.6063 2.63581 -8.85805
rtibia 54.7336
rfoot -21.1583 5.8605
rtoes -30.1211
lfemur -47.6342 11.7352 -8.1162
ltibia 69.6341
lfoot -12.71 -4.39292
ltoes -18.7554
